<svg width="30" height="30" viewBox="0 0 30 30" fill="none" xmlns="http://www.w3.org/2000/svg">
<path fill-rule="evenodd" clip-rule="evenodd" d="M12.2499 1.3648C12.2501 1.08042 12.1616 0.803083 11.9968 0.571591C11.8319 0.340099 11.5989 0.166039 11.3305 0.0737703C11.062 -0.0184983 10.7714 -0.0243585 10.4995 0.05701C10.2275 0.138378 9.98771 0.302904 9.81369 0.527561L0.286753 12.7998C0.100903 13.0392 0 13.3338 0 13.637C0 13.9403 0.100903 14.2349 0.286753 14.4743L9.81369 26.7465C9.98771 26.9712 10.2275 27.1357 10.4995 27.2171C10.7714 27.2984 11.062 27.2926 11.3305 27.2003C11.5989 27.108 11.8319 26.934 11.9968 26.7025C12.1616 26.471 12.2501 26.1936 12.2499 25.9093V20.4686C19.5706 20.6213 23.0874 22.0135 24.854 23.5271C26.5335 24.9657 26.841 26.6579 27.1609 28.4305L27.2439 28.8873C27.305 29.2142 27.4832 29.5074 27.7449 29.7119C28.0067 29.9163 28.334 30.0179 28.6653 29.9974C28.9966 29.977 29.309 29.836 29.5438 29.6009C29.7785 29.3658 29.9194 29.0529 29.94 28.721C30.1728 24.9739 29.823 19.5441 27.1813 15.002C24.6172 10.5935 19.9993 7.20366 12.2499 6.84912V1.3648Z" fill="#BADDB4"/>
</svg>
