<svg width="704" height="480" viewBox="0 0 704 480" fill="none" xmlns="http://www.w3.org/2000/svg">
<path d="M279.346 81.032C281.066 76.945 283.924 73.9983 287.613 72.5142L287.663 72.4956C289.341 71.8382 291.129 71.5019 292.932 71.504H293.13C301.574 71.6311 310.194 78.8041 314.577 89.3546C317.792 97.0699 318.161 105.368 315.563 111.552C313.846 115.642 310.982 118.589 307.277 120.073L307.237 120.089C305.558 120.746 303.771 121.082 301.968 121.08C293.443 121.08 284.733 113.907 280.27 103.217C277.096 95.5113 276.745 87.2197 279.346 81.032Z" fill="black"/>
<path d="M313.084 126.537C317.953 123.612 322.556 120.845 325.563 115.875C333.858 102.118 338.867 93.8135 352.001 93.8135C365.134 93.8135 370.156 102.118 378.469 115.875C381.482 120.851 386.094 123.621 390.979 126.559C396.581 129.924 402.368 133.4 404.866 140.242C405.837 142.708 406.327 145.337 406.307 147.988C406.307 159.127 397.628 168.19 386.965 168.19C381.463 168.19 375.608 166.285 369.412 164.268C363.454 162.328 357.295 160.323 351.97 160.323C346.644 160.323 340.501 162.328 334.565 164.268C328.381 166.272 322.553 168.178 317.036 168.178C306.388 168.178 297.725 159.115 297.725 147.976C297.716 145.323 298.216 142.694 299.197 140.229C301.695 133.382 307.486 129.902 313.084 126.537Z" fill="black"/>
<path d="M384.857 82.9223C381.169 87.5484 376.488 90.0953 371.677 90.0953C371.021 90.0953 370.365 90.0466 369.715 89.9497C359.682 88.4748 353.429 76.2357 355.481 62.0631C356.34 56.1046 358.634 50.5552 361.92 46.4403C365.602 41.8235 370.289 39.2797 375.096 39.2797C375.753 39.2797 376.409 39.3284 377.059 39.4253C387.092 40.9002 393.344 53.1393 391.292 67.3119C390.437 73.2611 388.143 78.8043 384.857 82.9223Z" fill="black"/>
<path d="M334.283 89.9497C333.633 90.0466 332.977 90.0953 332.32 90.0953C327.507 90.0953 322.829 87.5483 319.14 82.9222C315.858 78.8043 313.576 73.2611 312.709 67.3057C310.657 53.1393 316.909 40.9002 326.942 39.4191C327.592 39.3221 328.248 39.2735 328.905 39.2734C333.712 39.2796 338.399 41.8235 342.081 46.4403C345.367 50.5551 347.661 56.1046 348.516 62.0692C350.568 76.2356 344.316 88.4748 334.283 89.9497Z" fill="black"/>
<path d="M396.763 120.089L396.72 120.073C393.022 118.589 390.161 115.646 388.447 111.559C385.849 105.362 386.215 97.0731 389.423 89.3578C393.865 78.6803 402.572 71.5042 411.087 71.5042C412.89 71.5016 414.678 71.8379 416.356 72.4957L416.4 72.5112C420.088 73.983 422.949 76.939 424.664 81.0259C427.261 87.2229 426.895 95.5115 423.687 103.227C419.245 113.904 410.538 121.08 402.023 121.08C400.223 121.082 398.439 120.746 396.763 120.089V120.089Z" fill="black"/>
<path d="M152.937 42H204.777C222.297 42 236.697 46.38 247.977 55.14C259.377 63.78 265.077 75.9 265.077 91.5V118.32C265.077 134.64 259.557 147 248.517 155.4C237.477 163.8 222.957 168 204.957 168H152.937C151.617 168 150.477 167.52 149.517 166.56C148.557 165.6 148.077 164.46 148.077 163.14V46.86C148.077 45.54 148.557 44.4 149.517 43.44C150.477 42.48 151.617 42 152.937 42ZM193.077 77.1V132.9H204.777C208.857 132.9 212.097 131.7 214.497 129.3C217.017 126.78 218.277 123.12 218.277 118.32V91.5C218.277 81.9 213.777 77.1 204.777 77.1H193.077ZM506.076 92.04H555.576C556.896 92.04 558.036 92.52 558.996 93.48C559.956 94.44 560.436 95.58 560.436 96.9V120.3C560.436 136.14 554.796 148.38 543.516 157.02C532.236 165.54 517.176 169.8 498.336 169.8C479.616 169.8 464.856 165.66 454.056 157.38C443.256 148.98 437.856 136.44 437.856 119.76V89.52C437.856 73.56 443.376 61.38 454.416 52.98C465.456 44.46 480.156 40.2 498.516 40.2C516.996 40.2 531.936 44.1 543.336 51.9C554.736 59.58 560.436 69.06 560.436 80.34C560.436 81.42 560.016 82.38 559.176 83.22C558.456 83.94 557.556 84.3 556.476 84.3H516.696C514.296 84.3 512.556 83.64 511.476 82.32C509.076 79.2 507.276 77.4 506.076 76.92C503.316 75.84 500.796 75.3 498.516 75.3C489.276 75.3 484.656 79.8 484.656 88.8V119.4C484.656 129.6 489.576 134.7 499.416 134.7C509.496 134.7 514.536 130.38 514.536 121.74H506.076C504.756 121.74 503.616 121.26 502.656 120.3C501.696 119.34 501.216 118.2 501.216 116.88V96.9C501.216 95.58 501.696 94.44 502.656 93.48C503.616 92.52 504.756 92.04 506.076 92.04ZM119.783 265H155.063C156.383 265 157.523 265.48 158.483 266.44C159.443 267.4 159.923 268.54 159.923 269.86V386.14C159.923 387.46 159.443 388.6 158.483 389.56C157.523 390.52 156.383 391 155.063 391H119.783C118.463 391 117.323 390.52 116.363 389.56C115.403 388.6 114.923 387.46 114.923 386.14V347.26H85.7625V386.14C85.7625 387.46 85.2825 388.6 84.3225 389.56C83.3625 390.52 82.2225 391 80.9025 391H45.6225C44.3025 391 43.1625 390.58 42.2025 389.74C41.2425 388.78 40.7625 387.58 40.7625 386.14V269.86C40.7625 268.54 41.2425 267.4 42.2025 266.44C43.1625 265.48 44.3025 265 45.6225 265H80.9025C82.2225 265 83.3625 265.48 84.3225 266.44C85.2825 267.4 85.7625 268.54 85.7625 269.86V307.66H114.923V269.86C114.923 268.54 115.403 267.4 116.363 266.44C117.323 265.48 118.463 265 119.783 265ZM196.101 276.52C207.141 267.64 221.721 263.2 239.841 263.2C257.961 263.2 272.481 267.7 283.401 276.7C294.441 285.58 299.961 298.12 299.961 314.32V342.4C299.961 358.84 294.501 371.38 283.581 380.02C272.781 388.54 258.201 392.8 239.841 392.8C221.481 392.8 206.841 388.54 195.921 380.02C185.121 371.38 179.721 358.84 179.721 342.4V314.32C179.721 298 185.181 285.4 196.101 276.52ZM230.121 354.1C232.521 356.5 235.761 357.7 239.841 357.7C243.921 357.7 247.161 356.5 249.561 354.1C251.961 351.7 253.161 348.04 253.161 343.12V312.88C253.161 308.08 251.961 304.48 249.561 302.08C247.161 299.56 243.921 298.3 239.841 298.3C235.761 298.3 232.521 299.56 230.121 302.08C227.721 304.48 226.521 308.08 226.521 312.88V343.12C226.521 348.04 227.721 351.7 230.121 354.1ZM318.287 265H423.767C425.087 265 426.227 265.48 427.187 266.44C428.147 267.4 428.627 268.54 428.627 269.86V298.84C428.627 300.16 428.147 301.3 427.187 302.26C426.227 303.22 425.087 303.7 423.767 303.7H393.887V386.14C393.887 387.46 393.407 388.6 392.447 389.56C391.487 390.52 390.347 391 389.027 391H353.027C351.707 391 350.567 390.52 349.607 389.56C348.647 388.6 348.167 387.46 348.167 386.14V303.7H318.287C316.967 303.7 315.827 303.22 314.867 302.26C313.907 301.3 313.427 300.16 313.427 298.84V269.86C313.427 268.54 313.907 267.4 314.867 266.44C315.827 265.48 316.967 265 318.287 265ZM488.963 355.9H544.403C545.723 355.9 546.863 356.38 547.823 357.34C548.783 358.3 549.263 359.44 549.263 360.76V386.14C549.263 387.46 548.783 388.6 547.823 389.56C546.863 390.52 545.723 391 544.403 391H450.623C449.303 391 448.163 390.52 447.203 389.56C446.243 388.6 445.763 387.46 445.763 386.14V269.86C445.763 268.54 446.243 267.4 447.203 266.44C448.163 265.48 449.303 265 450.623 265H542.963C544.283 265 545.423 265.48 546.383 266.44C547.343 267.4 547.823 268.54 547.823 269.86V295.24C547.823 296.56 547.343 297.7 546.383 298.66C545.423 299.62 544.283 300.1 542.963 300.1H488.963V311.44H539.003C540.323 311.44 541.463 311.92 542.423 312.88C543.383 313.84 543.863 314.98 543.863 316.3V339.7C543.863 341.02 543.383 342.16 542.423 343.12C541.463 344.08 540.323 344.56 539.003 344.56H488.963V355.9ZM616.639 354.1H666.499C667.819 354.1 668.959 354.58 669.919 355.54C670.879 356.5 671.359 357.64 671.359 358.96V386.14C671.359 387.46 670.879 388.6 669.919 389.56C668.959 390.52 667.819 391 666.499 391H575.779C574.459 391 573.319 390.52 572.359 389.56C571.399 388.6 570.919 387.46 570.919 386.14V269.86C570.919 268.54 571.399 267.4 572.359 266.44C573.319 265.48 574.459 265 575.779 265H611.779C613.099 265 614.239 265.48 615.199 266.44C616.159 267.4 616.639 268.54 616.639 269.86V354.1Z" fill="black"/>
</svg>
