<svg width="32" height="30" viewBox="0 0 32 30" fill="none" xmlns="http://www.w3.org/2000/svg">
<path d="M31.3377 14.7542L16.7984 0.328544C16.6937 0.224397 16.5694 0.14177 16.4325 0.0853942C16.2956 0.0290184 16.1489 0 16.0007 0C15.8525 0 15.7057 0.0290184 15.5688 0.0853942C15.432 0.14177 15.3076 0.224397 15.2029 0.328544L0.663606 14.7542C0.240028 15.1748 0 15.7461 0 16.3419C0 17.5791 1.01306 18.5849 2.25908 18.5849H3.79102V28.8785C3.79102 29.4988 4.29579 30 4.92057 30H13.7416V22.1493H17.695V30H27.0808C27.7055 30 28.2103 29.4988 28.2103 28.8785V18.5849H29.7422C30.3423 18.5849 30.9177 18.3501 31.3412 17.926C32.2202 17.0498 32.2202 15.6304 31.3377 14.7542Z" fill="#3A3A3A"/>
</svg>
