<svg width="173" height="118" viewBox="0 0 173 118" fill="none" xmlns="http://www.w3.org/2000/svg">
<path d="M68.6461 19.9204C69.0688 18.9157 69.7711 18.1913 70.6776 17.8264L70.6898 17.8219C71.1023 17.6603 71.5416 17.5776 71.9847 17.5781H72.0334C74.1084 17.6094 76.2267 19.3727 77.3038 21.9664C78.0937 23.8631 78.1843 25.903 77.546 27.4233C77.124 28.4288 76.4202 29.1532 75.5099 29.5181L75.5 29.5219C75.0874 29.6834 74.6482 29.766 74.2051 29.7656C72.1104 29.7656 69.9699 28.0022 68.8731 25.3743C68.0931 23.4799 68.007 21.4416 68.6461 19.9204Z" fill="white"/>
<path d="M76.9367 31.107C78.1334 30.3879 79.2645 29.7077 80.0034 28.4859C82.0417 25.1039 83.2727 23.0625 86.5001 23.0625C89.7275 23.0625 90.9615 25.1039 93.0044 28.4859C93.7448 29.7093 94.8782 30.3902 96.0787 31.1123C97.4551 31.9396 98.8772 32.7942 99.4912 34.4761C99.7299 35.0824 99.8501 35.7288 99.8454 36.3804C99.8454 39.1188 97.7126 41.3468 95.0923 41.3468C93.7402 41.3468 92.3013 40.8783 90.7787 40.3825C89.3146 39.9056 87.8011 39.4128 86.4925 39.4128C85.1838 39.4128 83.6741 39.9056 82.2154 40.3825C80.6958 40.8753 79.2638 41.3437 77.9079 41.3437C75.2914 41.3437 73.1624 39.1157 73.1624 36.3773C73.1602 35.7253 73.2831 35.0789 73.5242 34.473C74.1381 32.7896 75.561 31.9342 76.9367 31.107Z" fill="white"/>
<path d="M94.5743 20.3851C93.6678 21.5223 92.5176 22.1484 91.3355 22.1484C91.1741 22.1484 91.0129 22.1365 90.8533 22.1126C88.3876 21.7501 86.8512 18.7413 87.3555 15.2572C87.5665 13.7924 88.1301 12.4281 88.9376 11.4166C89.8425 10.2816 90.9942 9.65625 92.1756 9.65625C92.337 9.65626 92.4982 9.66822 92.6578 9.69205C95.1235 10.0546 96.6599 13.0634 96.1556 16.5475C95.9454 18.01 95.3817 19.3727 94.5743 20.3851Z" fill="white"/>
<path d="M82.1461 22.1126C81.9865 22.1364 81.8253 22.1484 81.6639 22.1484C80.481 22.1484 79.3315 21.5222 78.4251 20.385C77.6184 19.3727 77.0578 18.01 76.8445 16.5459C76.3403 13.0634 77.8767 10.0546 80.3423 9.69046C80.502 9.66663 80.6631 9.65467 80.8245 9.65466C82.0059 9.65619 83.1576 10.2816 84.0626 11.4165C84.87 12.4281 85.4337 13.7923 85.6439 15.2586C86.1482 18.7412 84.6118 21.75 82.1461 22.1126Z" fill="white"/>
<path d="M97.5 29.5219L97.4893 29.5181C96.5806 29.1532 95.8775 28.4296 95.4563 27.4249C94.818 25.9014 94.9079 23.8638 95.6963 21.9672C96.7878 19.3423 98.9275 17.5781 101.02 17.5781C101.463 17.5775 101.902 17.6602 102.315 17.8219L102.325 17.8257C103.232 18.1875 103.935 18.9142 104.356 19.9189C104.995 21.4423 104.905 23.4799 104.116 25.3766C103.025 28.0015 100.885 29.7656 98.7926 29.7656C98.3503 29.766 97.9118 29.6833 97.5 29.5219Z" fill="white"/>
<path d="M33.2832 11.4H47.1072C51.7792 11.4 55.6192 12.568 58.6272 14.904C61.6672 17.208 63.1872 20.44 63.1872 24.6V31.752C63.1872 36.104 61.7152 39.4 58.7712 41.64C55.8272 43.88 51.9552 45 47.1552 45H33.2832C32.9312 45 32.6272 44.872 32.3712 44.616C32.1152 44.36 31.9872 44.056 31.9872 43.704V12.696C31.9872 12.344 32.1152 12.04 32.3712 11.784C32.6272 11.528 32.9312 11.4 33.2832 11.4ZM43.9872 20.76V35.64H47.1072C48.1952 35.64 49.0592 35.32 49.6992 34.68C50.3712 34.008 50.7072 33.032 50.7072 31.752V24.6C50.7072 22.04 49.5072 20.76 47.1072 20.76H43.9872ZM127.454 24.744H140.654C141.006 24.744 141.31 24.872 141.566 25.128C141.822 25.384 141.95 25.688 141.95 26.04V32.28C141.95 36.504 140.446 39.768 137.438 42.072C134.43 44.344 130.414 45.48 125.39 45.48C120.398 45.48 116.462 44.376 113.582 42.168C110.702 39.928 109.262 36.584 109.262 32.136V24.072C109.262 19.816 110.734 16.568 113.678 14.328C116.622 12.056 120.542 10.92 125.438 10.92C130.366 10.92 134.35 11.96 137.39 14.04C140.43 16.088 141.95 18.616 141.95 21.624C141.95 21.912 141.838 22.168 141.614 22.392C141.422 22.584 141.182 22.68 140.894 22.68H130.286C129.646 22.68 129.182 22.504 128.894 22.152C128.254 21.32 127.774 20.84 127.454 20.712C126.718 20.424 126.046 20.28 125.438 20.28C122.974 20.28 121.742 21.48 121.742 23.88V32.04C121.742 34.76 123.054 36.12 125.678 36.12C128.366 36.12 129.71 34.968 129.71 32.664H127.454C127.102 32.664 126.798 32.536 126.542 32.28C126.286 32.024 126.158 31.72 126.158 31.368V26.04C126.158 25.688 126.286 25.384 126.542 25.128C126.798 24.872 127.102 24.744 127.454 24.744ZM24.442 70.4H33.85C34.202 70.4 34.506 70.528 34.762 70.784C35.018 71.04 35.146 71.344 35.146 71.696V102.704C35.146 103.056 35.018 103.36 34.762 103.616C34.506 103.872 34.202 104 33.85 104H24.442C24.09 104 23.786 103.872 23.53 103.616C23.274 103.36 23.146 103.056 23.146 102.704V92.336H15.37V102.704C15.37 103.056 15.242 103.36 14.986 103.616C14.73 103.872 14.426 104 14.074 104H4.666C4.314 104 4.01 103.888 3.754 103.664C3.498 103.408 3.37 103.088 3.37 102.704V71.696C3.37 71.344 3.498 71.04 3.754 70.784C4.01 70.528 4.314 70.4 4.666 70.4H14.074C14.426 70.4 14.73 70.528 14.986 70.784C15.242 71.04 15.37 71.344 15.37 71.696V81.776H23.146V71.696C23.146 71.344 23.274 71.04 23.53 70.784C23.786 70.528 24.09 70.4 24.442 70.4ZM44.7936 73.472C47.7376 71.104 51.6256 69.92 56.4576 69.92C61.2896 69.92 65.1616 71.12 68.0736 73.52C71.0176 75.888 72.4896 79.232 72.4896 83.552V91.04C72.4896 95.424 71.0336 98.768 68.1216 101.072C65.2416 103.344 61.3536 104.48 56.4576 104.48C51.5616 104.48 47.6576 103.344 44.7456 101.072C41.8656 98.768 40.4256 95.424 40.4256 91.04V83.552C40.4256 79.2 41.8816 75.84 44.7936 73.472ZM53.8656 94.16C54.5056 94.8 55.3696 95.12 56.4576 95.12C57.5456 95.12 58.4096 94.8 59.0496 94.16C59.6896 93.52 60.0096 92.544 60.0096 91.232V83.168C60.0096 81.888 59.6896 80.928 59.0496 80.288C58.4096 79.616 57.5456 79.28 56.4576 79.28C55.3696 79.28 54.5056 79.616 53.8656 80.288C53.2256 80.928 52.9056 81.888 52.9056 83.168V91.232C52.9056 92.544 53.2256 93.52 53.8656 94.16ZM77.3766 70.4H105.505C105.857 70.4 106.161 70.528 106.417 70.784C106.673 71.04 106.801 71.344 106.801 71.696V79.424C106.801 79.776 106.673 80.08 106.417 80.336C106.161 80.592 105.857 80.72 105.505 80.72H97.5366V102.704C97.5366 103.056 97.4086 103.36 97.1526 103.616C96.8966 103.872 96.5926 104 96.2406 104H86.6406C86.2886 104 85.9846 103.872 85.7286 103.616C85.4726 103.36 85.3446 103.056 85.3446 102.704V80.72H77.3766C77.0246 80.72 76.7206 80.592 76.4646 80.336C76.2086 80.08 76.0806 79.776 76.0806 79.424V71.696C76.0806 71.344 76.2086 71.04 76.4646 70.784C76.7206 70.528 77.0246 70.4 77.3766 70.4ZM122.89 94.64H137.674C138.026 94.64 138.33 94.768 138.586 95.024C138.842 95.28 138.97 95.584 138.97 95.936V102.704C138.97 103.056 138.842 103.36 138.586 103.616C138.33 103.872 138.026 104 137.674 104H112.666C112.314 104 112.01 103.872 111.754 103.616C111.498 103.36 111.37 103.056 111.37 102.704V71.696C111.37 71.344 111.498 71.04 111.754 70.784C112.01 70.528 112.314 70.4 112.666 70.4H137.29C137.642 70.4 137.946 70.528 138.202 70.784C138.458 71.04 138.586 71.344 138.586 71.696V78.464C138.586 78.816 138.458 79.12 138.202 79.376C137.946 79.632 137.642 79.76 137.29 79.76H122.89V82.784H136.234C136.586 82.784 136.89 82.912 137.146 83.168C137.402 83.424 137.53 83.728 137.53 84.08V90.32C137.53 90.672 137.402 90.976 137.146 91.232C136.89 91.488 136.586 91.616 136.234 91.616H122.89V94.64ZM156.937 94.16H170.233C170.585 94.16 170.889 94.288 171.145 94.544C171.401 94.8 171.529 95.104 171.529 95.456V102.704C171.529 103.056 171.401 103.36 171.145 103.616C170.889 103.872 170.585 104 170.233 104H146.041C145.689 104 145.385 103.872 145.129 103.616C144.873 103.36 144.745 103.056 144.745 102.704V71.696C144.745 71.344 144.873 71.04 145.129 70.784C145.385 70.528 145.689 70.4 146.041 70.4H155.641C155.993 70.4 156.297 70.528 156.553 70.784C156.809 71.04 156.937 71.344 156.937 71.696V94.16Z" fill="white"/>
</svg>
